<svg id="visual" viewBox="0 0 960 540" width="960" height="540" xmlns="http://www.w3.org/2000/svg" xmlns:xlink="http://www.w3.org/1999/xlink" version="1.1"><rect x="0" y="0" width="960" height="540" fill="#001220"></rect><path d="M0 246L14.5 253C29 260 58 274 87.2 278.3C116.3 282.7 145.7 277.3 174.8 270.8C204 264.3 233 256.7 262 259C291 261.3 320 273.7 349 277.5C378 281.3 407 276.7 436.2 274.2C465.3 271.7 494.7 271.3 523.8 282.2C553 293 582 315 611 314.3C640 313.7 669 290.3 698 280.8C727 271.3 756 275.7 785.2 273C814.3 270.3 843.7 260.7 872.8 259C902 257.3 931 263.7 945.5 266.8L960 270L960 541L945.5 541C931 541 902 541 872.8 541C843.7 541 814.3 541 785.2 541C756 541 727 541 698 541C669 541 640 541 611 541C582 541 553 541 523.8 541C494.7 541 465.3 541 436.2 541C407 541 378 541 349 541C320 541 291 541 262 541C233 541 204 541 174.8 541C145.7 541 116.3 541 87.2 541C58 541 29 541 14.5 541L0 541Z" fill="#fa7268"></path><path d="M0 317L14.5 322.7C29 328.3 58 339.7 87.2 336.7C116.3 333.7 145.7 316.3 174.8 316.7C204 317 233 335 262 339.2C291 343.3 320 333.7 349 335.8C378 338 407 352 436.2 347.7C465.3 343.3 494.7 320.7 523.8 313.2C553 305.7 582 313.3 611 322.7C640 332 669 343 698 347.7C727 352.3 756 350.7 785.2 352.8C814.3 355 843.7 361 872.8 361.3C902 361.7 931 356.3 945.5 353.7L960 351L960 541L945.5 541C931 541 902 541 872.8 541C843.7 541 814.3 541 785.2 541C756 541 727 541 698 541C669 541 640 541 611 541C582 541 553 541 523.8 541C494.7 541 465.3 541 436.2 541C407 541 378 541 349 541C320 541 291 541 262 541C233 541 204 541 174.8 541C145.7 541 116.3 541 87.2 541C58 541 29 541 14.5 541L0 541Z" fill="#f36567"></path><path d="M0 347L14.5 346.8C29 346.7 58 346.3 87.2 344.2C116.3 342 145.7 338 174.8 345.5C204 353 233 372 262 381.8C291 391.7 320 392.3 349 392.8C378 393.3 407 393.7 436.2 382.3C465.3 371 494.7 348 523.8 340.2C553 332.3 582 339.7 611 344.3C640 349 669 351 698 350.3C727 349.7 756 346.3 785.2 345.7C814.3 345 843.7 347 872.8 352.2C902 357.3 931 365.7 945.5 369.8L960 374L960 541L945.5 541C931 541 902 541 872.8 541C843.7 541 814.3 541 785.2 541C756 541 727 541 698 541C669 541 640 541 611 541C582 541 553 541 523.8 541C494.7 541 465.3 541 436.2 541C407 541 378 541 349 541C320 541 291 541 262 541C233 541 204 541 174.8 541C145.7 541 116.3 541 87.2 541C58 541 29 541 14.5 541L0 541Z" fill="#eb5967"></path><path d="M0 422L14.5 420.5C29 419 58 416 87.2 407.3C116.3 398.7 145.7 384.3 174.8 384.3C204 384.3 233 398.7 262 407.8C291 417 320 421 349 416C378 411 407 397 436.2 392.8C465.3 388.7 494.7 394.3 523.8 390.7C553 387 582 374 611 372.8C640 371.7 669 382.3 698 386.2C727 390 756 387 785.2 390C814.3 393 843.7 402 872.8 401.5C902 401 931 391 945.5 386L960 381L960 541L945.5 541C931 541 902 541 872.8 541C843.7 541 814.3 541 785.2 541C756 541 727 541 698 541C669 541 640 541 611 541C582 541 553 541 523.8 541C494.7 541 465.3 541 436.2 541C407 541 378 541 349 541C320 541 291 541 262 541C233 541 204 541 174.8 541C145.7 541 116.3 541 87.2 541C58 541 29 541 14.5 541L0 541Z" fill="#e34c67"></path><path d="M0 452L14.5 451.5C29 451 58 450 87.2 445.2C116.3 440.3 145.7 431.7 174.8 423.5C204 415.3 233 407.7 262 412.3C291 417 320 434 349 439.8C378 445.7 407 440.3 436.2 434.3C465.3 428.3 494.7 421.7 523.8 421.7C553 421.7 582 428.3 611 434.2C640 440 669 445 698 443.2C727 441.3 756 432.7 785.2 427.3C814.3 422 843.7 420 872.8 420C902 420 931 422 945.5 423L960 424L960 541L945.5 541C931 541 902 541 872.8 541C843.7 541 814.3 541 785.2 541C756 541 727 541 698 541C669 541 640 541 611 541C582 541 553 541 523.8 541C494.7 541 465.3 541 436.2 541C407 541 378 541 349 541C320 541 291 541 262 541C233 541 204 541 174.8 541C145.7 541 116.3 541 87.2 541C58 541 29 541 14.5 541L0 541Z" fill="#da3f67"></path><path d="M0 490L14.5 488.8C29 487.7 58 485.3 87.2 482.5C116.3 479.7 145.7 476.3 174.8 476.7C204 477 233 481 262 475C291 469 320 453 349 445.3C378 437.7 407 438.3 436.2 439.3C465.3 440.3 494.7 441.7 523.8 443C553 444.3 582 445.7 611 444.7C640 443.7 669 440.3 698 438.8C727 437.3 756 437.7 785.2 439.7C814.3 441.7 843.7 445.3 872.8 452.7C902 460 931 471 945.5 476.5L960 482L960 541L945.5 541C931 541 902 541 872.8 541C843.7 541 814.3 541 785.2 541C756 541 727 541 698 541C669 541 640 541 611 541C582 541 553 541 523.8 541C494.7 541 465.3 541 436.2 541C407 541 378 541 349 541C320 541 291 541 262 541C233 541 204 541 174.8 541C145.7 541 116.3 541 87.2 541C58 541 29 541 14.5 541L0 541Z" fill="#d03267"></path><path d="M0 512L14.5 509.5C29 507 58 502 87.2 499.8C116.3 497.7 145.7 498.3 174.8 499.3C204 500.3 233 501.7 262 504.3C291 507 320 511 349 506.3C378 501.7 407 488.3 436.2 487.5C465.3 486.7 494.7 498.3 523.8 503.5C553 508.7 582 507.3 611 505C640 502.7 669 499.3 698 499.5C727 499.7 756 503.3 785.2 506.7C814.3 510 843.7 513 872.8 513.7C902 514.3 931 512.7 945.5 511.8L960 511L960 541L945.5 541C931 541 902 541 872.8 541C843.7 541 814.3 541 785.2 541C756 541 727 541 698 541C669 541 640 541 611 541C582 541 553 541 523.8 541C494.7 541 465.3 541 436.2 541C407 541 378 541 349 541C320 541 291 541 262 541C233 541 204 541 174.8 541C145.7 541 116.3 541 87.2 541C58 541 29 541 14.5 541L0 541Z" fill="#c62368"></path></svg>